<?xml version="1.0" encoding="UTF-8" standalone="no"?>
<!-- Created with Inkscape (http://www.inkscape.org/) -->

<svg
   width="904.85352"
   height="904.85352"
   viewBox="0 0 239.40915 239.40918"
   version="1.1"
   id="svg186"
   inkscape:version="1.1.2 (0a00cf5339, 2022-02-04)"
   sodipodi:docname="icon.svg"
   xmlns:inkscape="http://www.inkscape.org/namespaces/inkscape"
   xmlns:sodipodi="http://sodipodi.sourceforge.net/DTD/sodipodi-0.dtd"
   xmlns="http://www.w3.org/2000/svg"
   xmlns:svg="http://www.w3.org/2000/svg">
  <sodipodi:namedview
     id="namedview188"
     pagecolor="#ffffff"
     bordercolor="#666666"
     borderopacity="1.0"
     inkscape:pageshadow="2"
     inkscape:pageopacity="0.0"
     inkscape:pagecheckerboard="0"
     inkscape:document-units="mm"
     showgrid="false"
     inkscape:zoom="0.44785584"
     inkscape:cx="116.10879"
     inkscape:cy="646.41336"
     inkscape:window-width="1850"
     inkscape:window-height="1000"
     inkscape:window-x="62"
     inkscape:window-y="35"
     inkscape:window-maximized="0"
     inkscape:current-layer="layer1"
     units="px" />
  <defs
     id="defs183" />
  <g
     inkscape:groupmode="layer"
     id="layer3"
     inkscape:label="背景色"
     style="display:inline"
     transform="translate(-16.000057,-16.590719)">
    <rect
       style="display:inline;fill:#ffffff;stroke-width:0.244496"
       id="rect441"
       width="210"
       height="210"
       x="31.000057"
       y="31.000057"
       inkscape:label="背景色（白）" />
  </g>
  <g
     inkscape:label=" 文字"
     inkscape:groupmode="layer"
     id="layer1"
     transform="translate(15.312203,-25.128133)"
     style="display:inline">
    <path
       id="path163"
       style="display:inline;fill:#226baa;fill-opacity:1;stroke:none;stroke-width:0.999999"
       d="M 156.30078,2.2324219 C 77.522039,2.2324219 12.55805,59.13422 0,134.23828 V 777.31445 C 11.115287,843.78999 63.290935,895.9682 129.76562,907.08594 H 772.85547 C 847.95659,894.52545 904.85352,829.56378 904.85352,750.78711 V 160.76562 c 0,-87.827359 -70.70584,-158.5331981 -158.53321,-158.5331981 z m 186.9082,91.1699221 c 8.587,-0.29112 17.70137,2.273453 24.31836,6.001953 43.641,24.589993 30.50075,91.535063 13.21875,128.123043 -5.42702,11.49 -12.24346,22.393 -17.35742,34 -1.80703,4.09999 -4.4908,9.72488 -1.88281,14.04688 5.49501,9.10699 27.81349,4.95312 37.02148,4.95312 23.55103,0 54.48202,-5.03029 76,6.26368 26.92698,14.13404 25.51097,55.16332 2,71.73632 v 1 c 20.889,15.421 14.06298,55.23499 -9,65 3.50899,5.00198 7.90027,8.99501 9.7793,15 5.893,18.82598 -5.73628,39.90198 -22.7793,48 19.50799,27.75001 -18.98599,56.98998 -44,57 -39.373,0.0151 -79.81401,2.55907 -119,-1.16992 -34.14501,-3.24903 -66.62201,-12.94197 -100,-20.16797 -13.86198,-3.00102 -27.83599,-4.66211 -42,-4.66211 -7.091,0 -16.98961,1.41641 -22.89062,-3.43359 -6.66898,-5.48002 -5.10938,-15.92141 -5.10938,-23.56641 v -60 -55 c 0,-7.65101 -1.75439,-18.04636 2.14063,-24.98437 4.19199,-7.46796 13.5204,-6.8089 20.85937,-8.21289 13.102,-2.50601 24.80299,-5.87156 35,-14.97656 20.94198,-18.69898 32.96509,-45.7662 51.28907,-66.82618 18.49603,-21.25603 42.36426,-36.776 59.90625,-59 12.949,-16.40402 21.18289,-36.39001 24.38086,-57 2.05202,-13.22899 -0.0112,-29.1091 6.95312,-40.99609 4.50601,-7.692 12.56534,-10.837786 21.15234,-11.128906 z M 571.52734,120.5293 h 33 l 11.80664,2.43359 0.22852,9.56641 -2.03516,25.99804 c 29.84402,0 59.279,-2.99537 89,-5.02539 7.29702,-0.49799 24.40063,-6.12326 30.68164,-1.94726 2.70198,1.796 2.51156,6.10663 2.89454,8.97265 0.90902,6.816 4.25429,26.1485 -3.59571,28.77149 -11.69099,3.90501 -25.79849,4.01266 -37.98047,5.51367 -28.61102,3.52497 -57.17101,5.71484 -86,5.71484 l -3,29 c 21.47199,-1.695 42.39301,-4.73097 64,-2 0.587,-4.353 1.70251,-14.25803 5.5625,-16.95703 2.51698,-1.75899 6.73752,-0.18154 9.4375,0.35742 7.09603,1.41498 25.38342,0.99089 30.35743,6.33789 4.94,5.31099 -5.84316,14.24573 -1.66016,19.76172 5.249,6.92199 21.81775,11.07014 29.30273,16.41016 21.73402,15.504 35.78494,40.25085 36.96094,67.08984 2.05202,46.859 -24.64996,84.22019 -66.96094,102.57618 -11.90302,5.16401 -24.39199,9.21597 -37,12.29296 -4.11201,1.00399 -10.84125,3.74731 -14.90625,1.86133 -6.82103,-3.16702 -11.50229,-16.13047 -14.02929,-22.73047 -1.20699,-3.15303 -4.4796,-9.36825 -2.85157,-12.69726 1.58997,-3.25001 7.6961,-3.6527 10.78711,-4.42969 10.18299,-2.55803 20.17901,-5.74324 30,-9.44922 16.63801,-6.27999 32.07719,-15.88782 41.53516,-31.42383 16.39302,-26.92698 7.39384,-62.96445 -21.53516,-77.18945 -11.01502,-5.41599 -16.50914,13.45843 -21.20312,21.18945 -12.703,20.926 -26.888,40.63301 -43.08203,59 -6.29397,7.14002 -15.82672,12.45884 -21.30469,20.08985 -5.08702,7.08798 6.85784,15.46363 2.54883,22.51562 -3.82699,6.262 -21.21299,9.82556 -27.95899,12.06055 -2.68301,0.888 -6.01313,2.4345 -8.78711,1.0625 -3.65401,-1.80798 -5.00688,-7.18752 -6.21289,-10.72852 -23.78302,13.88202 -47.52803,17.59099 -73,7 2.54797,-11.14001 4.35179,-20.55899 2.8418,-32 -0.757,-5.73702 -5.08473,-12.30202 -4.34375,-18 0.79502,-6.11701 6.09625,-12.107 8.15625,-18 6.72601,-19.24101 6.01469,-40.627 -8.6543,-56 v -1 l 35,-30 20.98633,-13.39062 2.05274,-13.60938 1.96093,-28 h -46 c -5.28302,-0.002 -15.18246,0.77865 -19.77148,-2.02734 -2.79999,-1.71202 -3.11889,-5.00165 -3.21289,-7.97266 -0.21316,-6.79699 -4.48118,-28.05664 2.13281,-31.97265 5.31201,-3.14498 14.07455,-0.1 19.85156,-0.0293 16.99502,0.20182 34.00399,0.004 51,0.004 z m 84,144 -51,5 c 0,20.09801 -1.678,42.351 3,62 18.98098,-14.413 41.31999,-43.81204 48,-67 z m -96,25 c -9.072,7.90099 -17.64375,15.22002 -24.84375,25 -9.10401,12.36499 -20.26981,32.01101 -14.00781,48 6.144,15.68701 37.034,13.88338 46.20899,1.60937 3.022,-4.04398 -0.9945,-13.97737 -1.77149,-18.60937 -1.75401,-10.45901 -3.31129,-21.39502 -3.57031,-32 -0.1799,-7.32298 0.82635,-17.22599 -2.01563,-24 z m 88.90625,269.17968 c 24.52212,0.41954 48.98443,8.24993 63.99024,24.81836 12.83199,14.16797 13.10351,33.04698 13.10351,51 v 79 c 0,8.94399 0.21887,18.135 1.42578,27 0.526,3.86302 2.70064,10.13663 0.39063,13.68164 -2.79001,4.283 -13.40442,2.31836 -17.81641,2.31836 -6.301,0 -20.62772,2.63435 -25.26172,-2.51367 -3.42496,-3.805 -3.52829,-12.60435 -3.73828,-17.48633 -25.45701,25.246 -72.04999,34.60884 -104,15.17383 -31.36199,-19.07898 -32.449,-70.24123 -4,-92.65625 20.28102,-15.98 49.35699,-16.88041 74,-18.60742 11.313,-0.79299 22.65099,-2.81616 34,-2.91016 -0.79,-10.00501 -1.48866,-22.59434 -7.63867,-30.98437 -10.17098,-13.87298 -36.00731,-12.46005 -49.36133,-4.66602 -8.24198,4.80998 -10.85789,16.47164 -18.21289,20.43164 -6.73402,3.624 -26.1751,-0.155 -33.78711,-1.20703 -3.08602,-0.42701 -7.12247,-0.56262 -8.73046,-3.72265 -2.24398,-4.40901 1.21295,-11.79258 3.04296,-15.85157 6.23399,-13.83201 16.44551,-23.76073 29.6875,-30.9707 14.72406,-8.01719 33.83349,-12.17397 52.90625,-11.84766 z m -392.1875,1.5625 c 8.83973,-0.0918 17.93302,1.1165 26.28125,3.1543 69.347,16.92703 91.0746,110.00654 50.09961,164.10156 -15.41102,20.34599 -38.1116,31.72687 -63.09961,34.71485 -30.16199,3.60802 -63.46617,-4.15849 -84.91015,-26.73047 -39.75998,-41.85102 -34.40186,-123.57865 12.91015,-157.55664 15.133,-10.86799 31.83601,-14.99857 50,-17.14258 2.853,-0.33701 5.77217,-0.51044 8.71875,-0.54102 z m 129.52735,5.04297 c 8.17225,-0.13512 15.97973,0.6724 19.05273,4.44141 8.00099,9.816 11.34814,29.75149 15.36914,41.77148 9.49198,28.37499 22.58905,56.855 29.33203,86 6.16902,-10.85102 9.37703,-24.17802 13.33204,-36 6.58601,-19.68699 13.43495,-39.29899 20.00195,-59 3.21699,-9.65 5.12196,-23.43917 10.75195,-31.86718 5.60099,-8.38598 29.91104,-4.13282 38.91406,-4.13282 3.50899,0 8.79598,-0.90348 11.66797,1.60352 4.74599,4.14398 -2.33079,15.7655 -4.09179,20.39648 -7.51498,19.75502 -15.92183,39.178 -23.25782,59 -11.269,30.44602 -23.34853,60.64801 -34.89453,91 -8.24599,21.67801 -16.20122,46.354 -30.32422,65 -16.15302,21.32598 -50.94596,29.39648 -76.08398,19.4375 -9.606,-3.80602 -3.68179,-19.6245 -2.42578,-27.4375 0.46398,-2.88797 0.44002,-7.87529 3,-9.82031 3.37501,-2.56502 9.56013,-0.28943 13.41015,-0.19531 10.67599,0.26192 19.47994,-0.62937 26.21094,-9.98438 13.09803,-18.201 3.72682,-33.58697 -3.16016,-52 -13.92902,-37.23999 -28.8965,-74.243 -44.0625,-111 -3.97998,-9.64698 -7.90208,-19.313 -11.78906,-29 -1.50701,-3.755 -4.72687,-8.7454 -3.83789,-12.9414 1.08601,-5.125 7.73264,-4.0586 11.63867,-4.0586 4.536,-4.9e-4 13.07385,-1.07777 21.2461,-1.21289 z m -129.71289,33.25 c -1.48492,0.0516 -2.9964,0.18012 -4.53321,0.38867 -41.50998,5.63497 -48.50272,53.09023 -40.3457,87.57422 5.435,22.97401 23.09067,41.72585 48.3457,38.71485 42.54799,-5.07201 49.33751,-55.25486 40.52149,-89.71485 -5.44028,-21.2625 -21.71449,-37.73629 -43.98828,-36.96289 z m 423.46679,67.96289 c -14.07602,4.16103 -30.445,2.53823 -45,5.44922 -10.065,2.01301 -21.43388,4.89762 -28.67187,12.72461 -10.45099,11.29901 -8.40113,31.43285 5.67187,38.54883 29.457,14.895 65.60993,-8.92866 68.08594,-39.72266 0.44402,-5.52699 2.1312,-11.71599 -0.0859,-17 z"
       transform="matrix(0.26458333,0,0,0.26458333,-15.312203,24.537471)"
       inkscape:label="oya+あ+親指" />
    <g
       aria-label="-fix"
       id="text5113"
       style="font-size:28.2222px;line-height:3.35;display:inline;fill:#ffffff;stroke-width:0.264583"
       inkscape:label="-fix">
      <path
         d="m 133.57627,244.22151 h 8.69541 v 4.01009 h -8.69541 z"
         style="font-weight:bold;font-family:monospace;-inkscape-font-specification:'monospace Bold'"
         id="path8093" />
      <path
         d="m 156.60327,237.56559 v 1.35048 h 4.74044 v 3.10058 h -4.74044 v 12.33343 h -4.03765 v -12.33343 h -3.74826 v -3.10058 h 3.74826 v -1.07487 q 0,-2.78364 1.15755,-3.85851 1.15755,-1.07487 4.29948,-1.07487 h 3.32106 v 3.10059 h -3.1557 q -0.9095,0 -1.24023,0.33073 -0.31695,0.33073 -0.34451,1.22645 z"
         style="font-weight:bold;font-family:monospace;-inkscape-font-specification:'monospace Bold'"
         id="path8095" />
      <path
         d="m 166.45623,238.91607 h 7.99262 v 12.33343 h 5.01605 v 3.10058 h -14.08354 v -3.10058 h 5.02984 v -9.23285 h -3.95497 z m 3.95497,-7.51031 h 4.03765 v 4.71289 h -4.03765 z"
         style="font-weight:bold;font-family:monospace;-inkscape-font-specification:'monospace Bold'"
         id="path8097" />
      <path
         d="m 196.1805,238.91607 -5.1952,7.38628 5.64995,8.04773 h -4.71289 l -3.03168,-5.1952 -3.0179,5.1952 h -4.71289 l 5.70507,-8.04773 -5.25032,-7.38628 h 4.71289 l 2.56315,4.60264 2.57693,-4.60264 z"
         style="font-weight:bold;font-family:monospace;-inkscape-font-specification:'monospace Bold'"
         id="path8099" />
    </g>
    <text
       xml:space="preserve"
       style="font-style:normal;font-weight:normal;font-size:28.2222px;line-height:3.35;font-family:sans-serif;display:none;fill:#ffffff;fill-opacity:1;stroke:none;stroke-width:0.264583"
       x="129.42838"
       y="254.35008"
       id="text8083"
       inkscape:label="-fix"><tspan
         sodipodi:role="line"
         id="tspan8081"
         style="font-style:normal;font-variant:normal;font-weight:bold;font-stretch:normal;font-size:28.2222px;font-family:monospace;-inkscape-font-specification:'monospace Bold';fill:#ffffff;stroke-width:0.264583"
         x="0"
         y="0">-fix</tspan></text>
  </g>
</svg>
